<svg width="121" height="120" viewBox="0 0 121 120" fill="none" xmlns="http://www.w3.org/2000/svg">
<g clip-path="url(#clip0)">
<path d="M70.2322 119.229C103.211 113.891 125.582 83.0497 120.199 50.3436C114.816 17.6376 83.7182 -4.5484 50.7396 0.789837C17.761 6.12807 -4.60983 36.9691 0.77289 69.6751C6.15561 102.381 37.2536 124.567 70.2322 119.229Z" fill="#AE0F0A"/>
<path d="M19.6721 70.0983H13.2974V48.6208H14.9351V68.6615H19.6721V70.0983Z" fill="white"/>
<path d="M27.1933 64.3635H23.628V64.3322L22.7083 70.0983H21.0706L24.4091 48.6208H26.2988L29.6752 70.0983H28.0626L27.1681 64.3322L27.1933 64.3635ZM26.1729 57.6729L25.3981 51.3196L24.5981 57.6729L23.817 62.8767H27.0043L26.1729 57.6729Z" fill="white"/>
<path d="M45.3852 70.0983H43.8734L39.3191 56.9794L37.99 52.5003L38.2357 57.1606V70.0796H36.5979V48.6208H38.1475L42.7836 62.1208L44.0435 66.3875L43.7978 61.9396V48.6208H45.3852V70.0983Z" fill="white"/>
<path d="M48.2324 65.8628V52.8814C48.2324 50.5762 49.6875 48.4272 52.5347 48.4272C55.1363 48.4272 56.6481 50.5138 56.6481 52.9064V65.8316C56.6481 68.0993 55.2875 70.3108 52.5347 70.3108C49.782 70.3108 48.2324 68.2929 48.2324 65.8628ZM49.8702 52.8877V65.8628C49.8702 67.4309 50.708 68.8427 52.5347 68.8427C54.2355 68.8427 55.0544 67.4621 55.0544 65.8378V52.9126C55.0544 51.4133 54.2796 49.8766 52.5347 49.8766C50.7899 49.8766 49.8702 51.2259 49.8702 52.8814V52.8877Z" fill="white"/>
<path d="M68.3454 70.0983H66.8021L62.2542 56.9794L60.9251 52.5003L61.1707 57.1606V70.0796H59.533V48.6208H61.1329L65.7754 62.1208L67.0352 66.3875L66.7895 61.9396V48.6208H68.3958L68.3454 70.0983Z" fill="white"/>
<path d="M80.295 70.0983H78.7706L74.2226 56.9794L72.8872 52.5003L73.1392 57.1606V70.0796H71.4951V48.6208H73.0447L77.6872 62.1208L78.947 66.3875L78.7013 61.9396V48.6208H80.3139L80.295 70.0983Z" fill="white"/>
<path d="M83.4192 48.6208H85.0696V70.0983H83.4318L83.4192 48.6208Z" fill="white"/>
<path d="M96.8176 70.0983H95.2995L90.7515 56.9794L89.4224 52.5003L89.6681 57.1606V70.0796H88.0303V48.6208H89.5736L94.216 62.1208L95.4759 66.3875L95.2239 61.9396V48.6208H96.8365L96.8176 70.0983Z" fill="white"/>
<path d="M105.227 64.3635H101.668V64.3322L100.773 70.0983H99.1294L102.474 48.6208H104.364L107.74 70.0983H106.134L105.227 64.3322V64.3635ZM104.206 57.6729L103.432 51.3196L102.657 57.6729L101.832 62.8767H105.019L104.206 57.6729Z" fill="white"/>
<path d="M62.1848 80.1875C61.914 80.4187 61.6431 80.6686 61.6305 80.8935V81.7181H62.777V81.9867H61.3345V80.8935C61.3345 80.5624 61.6935 80.2687 62.0022 79.9939C62.3108 79.719 62.4872 79.6066 62.4872 79.4129V78.7882C62.4872 78.4259 62.2667 78.3197 62.0652 78.3197C61.8636 78.3197 61.6368 78.5258 61.6368 78.8069V79.1193H61.3597V78.8194C61.3505 78.7238 61.3622 78.6274 61.3939 78.5368C61.4257 78.4461 61.4768 78.3632 61.5437 78.2938C61.6107 78.2245 61.6919 78.1703 61.7819 78.1348C61.8719 78.0994 61.9685 78.0836 62.0652 78.0885C62.161 78.0839 62.2566 78.0994 62.3459 78.1341C62.4353 78.1687 62.5162 78.2217 62.5834 78.2895C62.6506 78.3574 62.7026 78.4385 62.736 78.5277C62.7693 78.6169 62.7833 78.712 62.777 78.8069V79.4316C62.777 79.744 62.4809 79.9314 62.1848 80.1875Z" fill="white"/>
<path d="M63.2368 81.2182V78.863C63.2271 78.7576 63.2397 78.6513 63.2738 78.5509C63.3079 78.4506 63.3627 78.3583 63.4347 78.2801C63.5067 78.202 63.5944 78.1395 63.6921 78.0968C63.7898 78.054 63.8954 78.032 64.0021 78.032C64.1089 78.032 64.2145 78.054 64.3122 78.0968C64.4099 78.1395 64.4976 78.202 64.5696 78.2801C64.6416 78.3583 64.6964 78.4506 64.7305 78.5509C64.7645 78.6513 64.7771 78.7576 64.7675 78.863V81.2119C64.7762 81.315 64.7633 81.4187 64.7296 81.5165C64.6959 81.6144 64.6422 81.7043 64.5718 81.7806C64.5014 81.8568 64.4158 81.9179 64.3205 81.9598C64.2252 82.0017 64.1222 82.0235 64.0179 82.024C63.9121 82.0259 63.807 82.0062 63.7093 81.9659C63.6116 81.9257 63.5233 81.8659 63.45 81.7902C63.3767 81.7145 63.3199 81.6247 63.2832 81.5263C63.2465 81.4278 63.2307 81.3229 63.2368 81.2182ZM63.5329 78.863V81.2182C63.5306 81.3345 63.5611 81.4492 63.621 81.5493L64.2132 78.357C64.152 78.3286 64.0854 78.3137 64.0179 78.3133C63.684 78.3133 63.5329 78.5569 63.5329 78.863ZM64.3895 78.5257L63.8037 81.7179C63.8711 81.747 63.9445 81.7599 64.0179 81.7554C64.3265 81.7554 64.4777 81.5055 64.4777 81.2119V78.863C64.4812 78.7446 64.4506 78.6276 64.3895 78.5257Z" fill="white"/>
<path d="M65.7565 81.9865H65.4667V78.3507H65.1392V78.0884H65.7691L65.7565 81.9865Z" fill="white"/>
<path d="M66.9659 82.0179C66.8627 82.0157 66.7611 81.9926 66.6673 81.9499C66.5734 81.9073 66.4894 81.846 66.4203 81.7699C66.3513 81.6939 66.2987 81.6045 66.2658 81.5075C66.2329 81.4105 66.2203 81.3078 66.229 81.2058V80.9934H66.5124V81.1808C66.5124 81.4807 66.6699 81.7243 66.9659 81.7243C67.0352 81.7257 67.104 81.7123 67.1676 81.6851C67.2313 81.6579 67.2883 81.6174 67.3348 81.5665C67.3814 81.5156 67.4164 81.4554 67.4375 81.39C67.4587 81.3245 67.4654 81.2553 67.4573 81.1871V80.2C67.4173 80.2988 67.3487 80.3836 67.2601 80.4437C67.1715 80.5037 67.067 80.5363 66.9596 80.5374C66.4179 80.5374 66.2227 80.0126 66.2227 79.5566V79.0068C66.2227 78.5383 66.4431 78.051 66.9911 78.051C67.5392 78.051 67.7407 78.507 67.7407 79.0131V81.1871C67.7536 81.2939 67.7429 81.4022 67.7094 81.5046C67.6759 81.607 67.6204 81.7009 67.5467 81.7799C67.4731 81.8589 67.383 81.9211 67.2827 81.9622C67.1824 82.0033 67.0744 82.0223 66.9659 82.0179ZM66.9659 78.3446C66.6258 78.3446 66.4872 78.7007 66.4872 79.0318V79.5816C66.4872 79.8564 66.5691 80.2937 66.9659 80.2937C67.3628 80.2937 67.4195 79.8689 67.4195 79.5753V79.0381C67.4321 78.707 67.3502 78.3446 66.9911 78.3446H66.9659Z" fill="white"/>
<path d="M33.4734 38.9941L32.9506 38.6005C32.917 38.5723 32.8777 38.5514 32.8353 38.5395C32.793 38.5275 32.7485 38.5247 32.7049 38.5313C32.6614 38.5378 32.6197 38.5534 32.5828 38.5772C32.5458 38.601 32.5145 38.6324 32.4908 38.6692L32.1758 39.0878L32.9569 39.6688L32.7868 39.8936L29.801 37.6635L30.2105 37.1262C30.2636 37.0414 30.3353 36.9697 30.4203 36.9163C30.5052 36.8629 30.6013 36.8292 30.7012 36.8178C30.8012 36.8064 30.9024 36.8175 30.9974 36.8504C31.0924 36.8832 31.1787 36.9369 31.2498 37.0075L32.2451 37.7509C32.3394 37.8249 32.4144 37.9202 32.4637 38.0289C32.513 38.1377 32.5353 38.2566 32.5285 38.3756C32.6176 38.3195 32.7223 38.2928 32.8276 38.2996C32.9329 38.3063 33.0333 38.3461 33.1144 38.4131L33.6372 38.8004L33.4734 38.9941ZM32.2136 38.6255C32.2827 38.5202 32.3069 38.3921 32.2809 38.2691C32.2549 38.1462 32.1809 38.0385 32.075 37.9696L31.0861 37.2261C31.0417 37.1793 30.9873 37.143 30.9269 37.1197C30.8665 37.0964 30.8016 37.0868 30.737 37.0916C30.6724 37.0964 30.6097 37.1154 30.5535 37.1474C30.4972 37.1793 30.4489 37.2233 30.412 37.2761L30.1727 37.5885L31.9742 38.9378L32.2136 38.6255Z" fill="white"/>
<path d="M32.5222 34.3714L32.7112 34.1653L35.4639 36.6641L35.2686 36.8703L32.5222 34.3714Z" fill="white"/>
<path d="M36.7111 34.3653L36.4717 34.0967L36.6796 33.9093L36.919 34.1779C36.9562 34.2336 37.005 34.2809 37.0621 34.3164C37.1193 34.3519 37.1834 34.3748 37.2502 34.3837C37.3171 34.3926 37.385 34.3872 37.4496 34.3678C37.5141 34.3485 37.5738 34.3157 37.6245 34.2716C37.6739 34.2288 37.7136 34.176 37.7407 34.1167C37.7679 34.0574 37.7819 33.9931 37.7819 33.928C37.7819 33.8629 37.7679 33.7985 37.7407 33.7393C37.7136 33.68 37.6739 33.6272 37.6245 33.5844L37.4607 33.4032C37.2969 33.2221 37.0701 33.297 36.7804 33.3595C36.4906 33.422 36.056 33.5469 35.7473 33.2471L35.2434 32.6973C35.168 32.6359 35.1069 32.5591 35.0641 32.4721C35.0213 32.3852 34.9978 32.2901 34.9953 32.1933C34.9929 32.0966 35.0114 32.0005 35.0497 31.9115C35.0879 31.8225 35.1451 31.7427 35.2172 31.6775C35.2893 31.6123 35.3747 31.5633 35.4676 31.5337C35.5605 31.5042 35.6587 31.4948 35.7556 31.5062C35.8525 31.5176 35.9458 31.5495 36.0291 31.5998C36.1125 31.6501 36.1839 31.7176 36.2386 31.7977L36.5662 32.1601L36.3583 32.3412L36.0434 31.9851C35.8544 31.779 35.6213 31.679 35.4135 31.8665C35.2056 32.0539 35.2245 32.2538 35.4576 32.4912L35.9489 33.0347C36.1253 33.2096 36.3772 33.1659 36.6229 33.1096C37.0512 33.0159 37.3977 32.9097 37.6497 33.1846L37.8323 33.3907C37.9073 33.4558 37.9673 33.536 38.0084 33.626C38.0496 33.716 38.0708 33.8136 38.0708 33.9124C38.0708 34.0112 38.0496 34.1088 38.0084 34.1987C37.9673 34.2887 37.9073 34.3689 37.8323 34.434C37.7588 34.5114 37.669 34.5718 37.5693 34.6109C37.4696 34.65 37.3625 34.6669 37.2555 34.6603C37.1485 34.6538 37.0442 34.6239 36.9501 34.5729C36.8561 34.522 36.7744 34.451 36.7111 34.3653Z" fill="white"/>
<path d="M38.6891 29.255L40.7301 32.0662L40.5096 32.2223L38.4561 29.4174L38.034 29.7173L37.8892 29.5236L38.9537 28.7615L39.0986 28.9551L38.6891 29.255Z" fill="white"/>
<path d="M42.7521 29.8673L41.6057 27.8932C41.542 27.811 41.4969 27.7161 41.4733 27.615C41.4498 27.5139 41.4484 27.409 41.4693 27.3074C41.4902 27.2057 41.5328 27.1097 41.5943 27.0258C41.6558 26.9419 41.7348 26.8721 41.8258 26.821C41.9169 26.77 42.018 26.739 42.1222 26.73C42.2264 26.721 42.3313 26.7344 42.4299 26.7691C42.5285 26.8038 42.6184 26.8591 42.6935 26.9313C42.7687 27.0034 42.8273 27.0908 42.8655 27.1873L43.9805 29.1239C44.0372 29.2045 44.0763 29.296 44.0953 29.3925C44.1143 29.4889 44.1128 29.5883 44.0909 29.6842C44.0689 29.78 44.0271 29.8703 43.9679 29.9491C43.9088 30.028 43.8337 30.0938 43.7474 30.1422C43.6641 30.1898 43.572 30.2204 43.4766 30.2323C43.3812 30.2443 43.2843 30.2372 43.1917 30.2116C43.099 30.1861 43.0125 30.1424 42.937 30.0833C42.8615 30.0242 42.7987 29.9508 42.7521 29.8673ZM41.8829 27.7808L42.9978 29.7299C43.0223 29.7896 43.0595 29.8435 43.1068 29.8877C43.1541 29.9319 43.2105 29.9656 43.2721 29.9863C43.3336 30.0071 43.399 30.0144 43.4637 30.0079C43.5284 30.0014 43.5909 29.9812 43.647 29.9486C43.7032 29.916 43.7516 29.8719 43.789 29.8191C43.8264 29.7663 43.8519 29.7062 43.8638 29.6428C43.8757 29.5794 43.8737 29.5142 43.858 29.4516C43.8423 29.389 43.8131 29.3305 43.7726 29.2801L42.6639 27.3435C42.6387 27.2865 42.6023 27.2351 42.5569 27.1923C42.5114 27.1494 42.4578 27.1159 42.3992 27.0938C42.3405 27.0718 42.2781 27.0614 42.2154 27.0636C42.1527 27.0657 42.091 27.0801 42.034 27.1061C41.9749 27.1363 41.9233 27.1791 41.8827 27.2313C41.8421 27.2835 41.8135 27.344 41.7991 27.4083C41.7847 27.4727 41.7847 27.5394 41.7992 27.6038C41.8137 27.6682 41.8422 27.7286 41.8829 27.7808Z" fill="white"/>
<path d="M47.6906 28.2243L47.4323 27.6308C47.4168 27.5899 47.3928 27.5528 47.3617 27.522C47.3306 27.4911 47.2933 27.4672 47.2521 27.4518C47.211 27.4364 47.167 27.43 47.1231 27.4328C47.0792 27.4357 47.0364 27.4478 46.9976 27.4684L46.5126 27.6745L46.8969 28.5616L46.6386 28.674L45.1709 25.2694L45.8008 25.007C45.8888 24.9591 45.9865 24.9317 46.0868 24.9268C46.187 24.9219 46.287 24.9397 46.3792 24.9789C46.4715 25.018 46.5535 25.0774 46.6192 25.1526C46.6849 25.2279 46.7324 25.3169 46.7583 25.4131L47.2496 26.55C47.2898 26.6511 47.3062 26.7599 47.2974 26.8682C47.2887 26.9765 47.2551 27.0813 47.1992 27.1748C47.3046 27.1693 47.409 27.1973 47.4973 27.2545C47.5856 27.3118 47.6533 27.3954 47.6906 27.4933L47.9488 28.118L47.6906 28.2243ZM46.7772 27.2872C46.8876 27.2309 46.9716 27.1343 47.0116 27.0178C47.0515 26.9012 47.0443 26.7738 46.9913 26.6625L46.5 25.5318C46.4856 25.4667 46.4562 25.4058 46.414 25.3539C46.3719 25.302 46.3182 25.2605 46.2571 25.2327C46.1961 25.2048 46.1294 25.1914 46.0622 25.1934C45.9951 25.1955 45.9293 25.2129 45.8701 25.2444L45.511 25.4006L46.3992 27.4559L46.7772 27.2872Z" fill="white"/>
<path d="M50.8842 26.0629L50.2984 26.2378L50.437 27.2311L50.1661 27.3123L49.6433 23.6015L49.952 23.5078L51.5898 26.8875L51.3252 26.9687L50.8842 26.0566V26.0629ZM50.3803 25.0134L49.9331 24.0013L50.1283 25.0883L50.2543 25.9879L50.7835 25.8317L50.3803 25.0134Z" fill="white"/>
<path d="M55.4636 26.0565L55.2053 26.1002L54.0274 24.0137L53.662 23.2953L53.851 24.0824L54.2478 26.2689L53.9707 26.3189L53.303 22.6768L53.5675 22.6331L54.777 24.7821L55.1171 25.463L54.9344 24.7196L54.525 22.4582L54.7959 22.4082L55.4636 26.0565Z" fill="white"/>
<path d="M58.3423 22.2708L58.5879 25.7254H58.3171L58.0714 22.2708L57.5486 22.3083V22.0647L58.8588 21.9709V22.2146L58.3423 22.2708Z" fill="white"/>
<path d="M61.8196 24.4073H62.6259V24.651H61.8196V25.3944L62.8338 25.4256V25.6755L61.5361 25.6318L61.6558 21.9272L62.9534 21.971V22.2146L61.9393 22.1834L61.8196 24.4073Z" fill="white"/>
<path d="M68.7863 22.7207L69.0634 22.7832L68.2886 26.4065L68.0115 26.344L68.7863 22.7207Z" fill="white"/>
<path d="M72.358 23.895L71.3312 27.1998L71.0667 27.1185L72.0997 23.8138L71.6021 23.6577L71.6714 23.4265L72.9312 23.8138L72.8619 24.045L72.358 23.895Z" fill="white"/>
<path d="M75.2935 27.612L74.7266 27.3746L74.1911 28.2305L73.9329 28.118L75.936 24.9382L76.232 25.0694L75.2935 28.699L75.0415 28.5928L75.2935 27.6182V27.612ZM75.5895 26.4875L75.9045 25.4255L75.3439 26.3813L74.8588 27.156L75.3628 27.3684L75.5895 26.4875Z" fill="white"/>
<path d="M78.424 30.2983L77.4602 29.7673L79.287 26.5376L79.5326 26.6688L77.8318 29.6861L78.5437 30.0797L78.424 30.2983Z" fill="white"/>
<path d="M82.5877 28.5181L82.8208 28.6742L80.7106 31.7291L80.4775 31.5729L82.5877 28.5181Z" fill="white"/>
<path d="M84.087 33.072L83.6145 32.6847L82.8524 33.3468L82.6382 33.1719L85.4728 30.6731L85.7247 30.8855L83.8098 34.1402L83.5957 33.9653L84.1185 33.1032L84.087 33.072ZM84.7169 32.0787L85.3468 31.1479L84.5342 31.9038L83.8476 32.5285L84.2697 32.8783L84.7169 32.0787Z" fill="white"/>
<path d="M86.594 36.8391L86.4176 36.6516L87.5263 34.5339L87.9294 33.8342L87.3688 34.4215L85.7436 35.9582L85.5483 35.7521L88.2507 33.197L88.4397 33.3907L87.2932 35.5709L86.9027 36.2331L87.4318 35.6709L89.1074 34.0841L89.2963 34.284L86.594 36.8391Z" fill="white"/>
<path d="M88.849 38.3132L90.6443 36.9638C90.7205 36.8982 90.8097 36.8491 90.9061 36.8196C91.0026 36.7902 91.1042 36.7811 91.2044 36.7928C91.3046 36.8046 91.4013 36.837 91.4881 36.888C91.575 36.9389 91.6502 37.0073 91.7088 37.0888C91.7676 37.1672 91.8095 37.2568 91.8318 37.3519C91.8542 37.447 91.8566 37.5457 91.8389 37.6418C91.8211 37.7379 91.7837 37.8293 91.7288 37.9105C91.6739 37.9916 91.6028 38.0606 91.5198 38.1133L89.7246 39.4564C89.6511 39.5226 89.5646 39.5729 89.4705 39.6042C89.3764 39.6355 89.2768 39.6471 89.1779 39.6382C89.0791 39.6294 88.9831 39.6004 88.8962 39.553C88.8092 39.5056 88.7331 39.4408 88.6726 39.3627C88.6109 39.2837 88.5664 39.193 88.5417 39.0961C88.5171 38.9992 88.5129 38.8983 88.5295 38.7997C88.546 38.7012 88.583 38.6071 88.638 38.5233C88.6929 38.4396 88.7648 38.3681 88.849 38.3132ZM90.8143 37.1888L88.9939 38.5131C88.9355 38.5435 88.8846 38.5862 88.8445 38.6382C88.8045 38.6901 88.7764 38.7501 88.7621 38.8139C88.7478 38.8777 88.7477 38.9439 88.7619 39.0078C88.776 39.0716 88.804 39.1317 88.844 39.1837C88.8839 39.2357 88.9348 39.2785 88.9931 39.309C89.0514 39.3396 89.1157 39.3571 89.1815 39.3605C89.2474 39.3639 89.3131 39.3529 89.3743 39.3285C89.4355 39.3041 89.4905 39.2667 89.5356 39.2191L91.3246 37.8759C91.3827 37.8458 91.4335 37.8034 91.4735 37.7519C91.5136 37.7003 91.5418 37.6407 91.5564 37.5773C91.5709 37.5139 91.5715 37.4481 91.5579 37.3844C91.5443 37.3208 91.517 37.2608 91.4777 37.2086C91.4385 37.1565 91.3884 37.1133 91.3307 37.0823C91.2731 37.0512 91.2094 37.0329 91.1439 37.0286C91.0784 37.0244 91.0128 37.0343 90.9516 37.0576C90.8903 37.0809 90.8349 37.1171 90.7891 37.1638L90.8143 37.1888Z" fill="white"/>
<path d="M30.6388 84.223L31.1553 83.8169C31.1902 83.7909 31.2191 83.7579 31.2401 83.7201C31.2612 83.6822 31.2739 83.6404 31.2775 83.5973C31.281 83.5542 31.2754 83.5109 31.2608 83.4701C31.2463 83.4294 31.2232 83.3922 31.1931 83.3609L30.8656 82.9548L30.1034 83.5795L29.927 83.3609L32.8372 81.0432L33.2592 81.568C33.3359 81.636 33.3945 81.7215 33.4302 81.8171C33.4658 81.9128 33.4773 82.0156 33.4636 82.1166C33.4499 82.2177 33.4115 82.3139 33.3517 82.3968C33.292 82.4798 33.2126 82.5469 33.1207 82.5925L32.1569 83.3484C32.0689 83.4163 31.9661 83.4629 31.8568 83.4846C31.7475 83.5063 31.6345 83.5024 31.527 83.4733C31.5588 83.5743 31.5583 83.6825 31.5256 83.7832C31.4929 83.8838 31.4296 83.972 31.3443 84.0356L30.8341 84.4416L30.6388 84.223ZM31.3065 83.1048C31.3919 83.1972 31.5107 83.2523 31.637 83.2581C31.7633 83.264 31.8868 83.2201 31.9805 83.136L32.9506 82.3676C33.0073 82.3362 33.0562 82.2925 33.0937 82.2399C33.1312 82.1873 33.1563 82.127 33.1672 82.0634C33.178 81.9999 33.1744 81.9348 33.1566 81.8728C33.1387 81.8108 33.1071 81.7536 33.064 81.7054L32.8183 81.3993L31.0608 82.7987L31.3065 83.1048Z" fill="white"/>
<path d="M35.4074 83.9546L35.6026 84.1545L32.9318 86.747L32.7302 86.5409L35.4074 83.9546Z" fill="white"/>
<path d="M35.4701 88.1149L35.7032 87.84L35.9174 88.0149L35.6843 88.2898C35.6335 88.3338 35.5928 88.388 35.5649 88.4489C35.537 88.5098 35.5226 88.5759 35.5226 88.6428C35.5226 88.7096 35.537 88.7757 35.5649 88.8366C35.5928 88.8975 35.6335 88.9517 35.6843 88.9957C35.7353 89.0363 35.7944 89.0655 35.8578 89.0816C35.9211 89.0977 35.9872 89.1002 36.0515 89.089C36.1159 89.0777 36.1771 89.053 36.2311 89.0165C36.2851 88.9799 36.3306 88.9324 36.3646 88.877L36.5221 88.6896C36.6859 88.5022 36.5788 88.2898 36.4717 88.0212C36.3646 87.7526 36.1882 87.3277 36.4402 86.9842L36.9189 86.4157C36.9717 86.334 37.0417 86.2646 37.124 86.2122C37.2063 86.1598 37.2991 86.1256 37.396 86.1119C37.4928 86.0983 37.5915 86.1055 37.6853 86.1332C37.7791 86.1608 37.8657 86.2081 37.9394 86.272C38.0106 86.3347 38.0676 86.4117 38.1066 86.4978C38.1456 86.584 38.1658 86.6773 38.1658 86.7718C38.1658 86.8662 38.1456 86.9596 38.1066 87.0457C38.0676 87.1318 38.0106 87.2088 37.9394 87.2715L37.6307 87.6401L37.4229 87.4652L37.7315 87.1029C37.9079 86.8905 37.9772 86.6468 37.763 86.4782C37.5488 86.3095 37.3473 86.347 37.1331 86.6093L36.6607 87.1716C36.6033 87.2749 36.5733 87.391 36.5733 87.5089C36.5733 87.6269 36.6033 87.7429 36.6607 87.8463C36.8181 88.2461 36.9693 88.5709 36.7237 88.8583L36.5536 89.0644C36.4978 89.1473 36.4248 89.2174 36.3395 89.27C36.2542 89.3226 36.1586 89.3566 36.059 89.3696C35.9594 89.3826 35.8582 89.3744 35.7621 89.3454C35.6659 89.3165 35.5771 89.2676 35.5016 89.2019C35.4219 89.1361 35.3571 89.0543 35.3117 88.9618C35.2663 88.8693 35.2413 88.7682 35.2383 88.6654C35.2354 88.5626 35.2545 88.4603 35.2945 88.3654C35.3344 88.2705 35.3943 88.1851 35.4701 88.1149Z" fill="white"/>
<path d="M40.8497 88.7833L38.8906 91.6507L38.6702 91.5008L40.6229 88.6334L40.1883 88.346L40.3268 88.1399L41.4166 88.8708L41.278 89.0707L40.8497 88.7833Z" fill="white"/>
<path d="M41.9962 92.6939L43.0545 90.7136C43.0957 90.622 43.1559 90.54 43.231 90.4729C43.3061 90.4057 43.3946 90.3549 43.4907 90.3237C43.5868 90.2925 43.6885 90.2816 43.7891 90.2918C43.8897 90.3019 43.9871 90.3328 44.075 90.3825C44.1623 90.4288 44.239 90.4927 44.3001 90.5701C44.3612 90.6475 44.4053 90.7367 44.4296 90.8319C44.4539 90.9272 44.4579 91.0264 44.4413 91.1233C44.4247 91.2202 44.3879 91.3126 44.3332 91.3945L43.2813 93.3624C43.2429 93.4526 43.1861 93.534 43.1143 93.6013C43.0425 93.6685 42.9575 93.7203 42.8644 93.7532C42.7714 93.7861 42.6725 93.7994 42.574 93.7924C42.4755 93.7853 42.3796 93.758 42.2923 93.7122C42.2023 93.6679 42.1225 93.6055 42.0581 93.529C41.9937 93.4525 41.9461 93.3635 41.9183 93.2677C41.8904 93.1719 41.883 93.0715 41.8964 92.9727C41.9098 92.8739 41.9438 92.779 41.9962 92.6939ZM43.3065 90.8198L42.2356 92.8251C42.1965 92.8773 42.1693 92.9372 42.1558 93.0009C42.1423 93.0645 42.1429 93.1302 42.1575 93.1936C42.1721 93.2569 42.2004 93.3164 42.2404 93.3679C42.2804 93.4194 42.3312 93.4617 42.3892 93.4918C42.4473 93.522 42.5112 93.5393 42.5767 93.5426C42.6421 93.5459 42.7075 93.5351 42.7684 93.5109C42.8292 93.4867 42.884 93.4498 42.9291 93.4025C42.9741 93.3553 43.0083 93.299 43.0293 93.2374L44.0813 91.2696C44.1193 91.2176 44.1459 91.1584 44.1596 91.0956C44.1732 91.0329 44.1735 90.968 44.1605 90.9051C44.1475 90.8422 44.1214 90.7827 44.0839 90.7304C44.0464 90.6781 43.9983 90.634 43.9427 90.6012C43.8853 90.5725 43.8225 90.556 43.7583 90.5529C43.6941 90.5498 43.63 90.56 43.5701 90.583C43.5101 90.6059 43.4557 90.6411 43.4103 90.6862C43.3649 90.7313 43.3295 90.7853 43.3065 90.8448V90.8198Z" fill="white"/>
<path d="M46.6449 95.6426L46.8843 95.0179C46.9034 94.9786 46.9137 94.9356 46.9143 94.8919C46.9149 94.8482 46.9059 94.8049 46.8879 94.7651C46.8699 94.7252 46.8434 94.6897 46.8101 94.6611C46.7768 94.6325 46.7376 94.6114 46.6953 94.5994L46.204 94.4119L45.8449 95.3115L45.5867 95.2053L46.9473 91.7632L47.5772 92.0068C47.6736 92.0352 47.7622 92.0848 47.8366 92.1519C47.911 92.219 47.9691 92.3019 48.0066 92.3944C48.0442 92.4868 48.0602 92.5865 48.0534 92.686C48.0467 92.7855 48.0174 92.8822 47.9677 92.9689L47.5142 94.1121C47.4726 94.2185 47.4055 94.3133 47.3189 94.3883C47.2322 94.4634 47.1285 94.5165 47.0166 94.5431C47.0953 94.614 47.1498 94.7074 47.1724 94.8105C47.195 94.9135 47.1845 95.021 47.1425 95.1178L46.8969 95.7426L46.6449 95.6426ZM46.6449 94.337C46.706 94.3596 46.7711 94.3697 46.8363 94.3668C46.9015 94.3638 46.9654 94.3479 47.0242 94.3199C47.083 94.2919 47.1355 94.2524 47.1785 94.2038C47.2216 94.1553 47.2544 94.0985 47.2748 94.0371L47.7284 92.8877C47.7608 92.8327 47.7805 92.7712 47.786 92.7078C47.7916 92.6443 47.783 92.5804 47.7607 92.5207C47.7384 92.461 47.703 92.4068 47.6572 92.3623C47.6113 92.3177 47.556 92.2838 47.4953 92.263L47.13 92.1193L46.3048 94.1995L46.6449 94.337Z" fill="white"/>
<path d="M50.8276 95.9175L50.2355 95.7551L49.826 96.6734L49.5552 96.5984L51.0544 93.175L51.3693 93.2563L50.9599 97.0045L50.6953 96.9295L50.8024 95.93L50.8276 95.9175ZM50.9599 94.7556L51.1174 93.6623L50.7016 94.6868L50.33 95.524L50.8654 95.6614L50.9599 94.7556Z" fill="white"/>
<path d="M55.2622 97.7791L55.0039 97.7416L54.5693 95.3927L54.4559 94.5993L54.3803 95.3989L54.0465 97.6042L53.7693 97.5604L54.3173 93.8997L54.5819 93.9371L55.0291 96.3547L55.1299 97.1169L55.1992 96.3485L55.5457 94.0808L55.8165 94.1183L55.2622 97.7791Z" fill="white"/>
<path d="M58.9534 94.6119L58.8148 98.0666H58.5376L58.6825 94.6057H58.1597V94.3621L59.4762 94.412V94.6557L58.9534 94.6119Z" fill="white"/>
<path d="M62.2919 96.8108L63.0982 96.7608V96.9982L62.2982 97.0545L62.3423 97.7916L63.3564 97.7292V97.9728L62.0966 98.054L61.8635 94.362L63.1234 94.2808V94.5244L62.1092 94.5869L62.2919 96.8108Z" fill="white"/>
<path d="M68.3203 93.4499L68.5975 93.3875L69.4794 96.9858L69.2022 97.0483L68.3203 93.4499Z" fill="white"/>
<path d="M71.6777 92.7315L72.8052 96.0049L72.547 96.0924L71.4194 92.8189L70.9218 92.9876L70.8462 92.7564L72.106 92.3379L72.1816 92.569L71.6777 92.7315Z" fill="white"/>
<path d="M76.2507 93.5374L75.6901 93.7935L75.9736 94.7618L75.7153 94.8805L74.6633 91.2822L74.9594 91.1448L77.0633 94.2683L76.8113 94.387L76.2444 93.5499L76.2507 93.5374ZM75.6208 92.5629L75.0287 91.6258L75.3751 92.6753L75.6334 93.5499L76.131 93.3188L75.6208 92.5629Z" fill="white"/>
<path d="M80.4838 92.3754L79.5389 92.9376L77.6177 89.7391L77.857 89.5955L79.6523 92.5566L80.3515 92.138L80.4838 92.3754Z" fill="white"/>
<path d="M80.5593 87.8651L80.7861 87.7026L82.9971 90.6887L82.764 90.8512L80.5593 87.8651Z" fill="white"/>
<path d="M85.2648 87.5653L84.8113 87.9651L85.3593 88.8084L85.1514 88.9958L83.0979 85.8723L83.3436 85.6599L86.2601 88.0463L86.0522 88.2274L85.2711 87.6027L85.2648 87.5653ZM84.364 86.8156L83.5325 86.0847L84.1625 86.9968L84.6601 87.7589L85.0695 87.3966L84.364 86.8156Z" fill="white"/>
<path d="M89.2774 84.9165L89.101 85.1101L86.8838 84.1793L86.1531 83.8295L86.783 84.3417L88.4522 85.8285L88.2696 86.0347L85.4854 83.5359L85.668 83.336L87.9483 84.3042L88.6412 84.6353L88.0113 84.1543L86.3294 82.6488L86.5184 82.4426L89.2774 84.9165Z" fill="white"/>
<path d="M90.5121 82.2427L88.6728 80.9496C88.5843 80.8993 88.5073 80.8311 88.447 80.7495C88.3866 80.6679 88.3442 80.5747 88.3223 80.4759C88.3005 80.377 88.2998 80.2747 88.3202 80.1756C88.3407 80.0764 88.3819 79.9826 88.4411 79.9002C88.5003 79.8178 88.5763 79.7486 88.6641 79.6971C88.7519 79.6456 88.8497 79.6129 88.951 79.6011C89.0524 79.5893 89.1551 79.5987 89.2525 79.6287C89.35 79.6587 89.44 79.7085 89.5169 79.7751L91.3436 81.062C91.4303 81.1109 91.5056 81.1773 91.5648 81.257C91.6239 81.3366 91.6655 81.4276 91.6869 81.5242C91.7083 81.6208 91.7089 81.7208 91.6889 81.8177C91.6688 81.9145 91.6284 82.0061 91.5704 82.0865C91.5136 82.1686 91.4403 82.2382 91.3552 82.2909C91.27 82.3437 91.1748 82.3785 91.0756 82.3931C90.9763 82.4078 90.875 82.402 90.778 82.3761C90.6811 82.3502 90.5906 82.3048 90.5121 82.2427ZM88.8492 80.6934L90.6948 81.9866C90.7431 82.0303 90.8002 82.0633 90.8623 82.0834C90.9245 82.1035 90.9902 82.1102 91.0552 82.1031C91.1202 82.096 91.1829 82.0753 91.2391 82.0423C91.2954 82.0092 91.3439 81.9647 91.3814 81.9116C91.4124 81.8594 91.4325 81.8015 91.4404 81.7415C91.4483 81.6814 91.4439 81.6204 91.4274 81.562C91.4109 81.5037 91.3827 81.4492 91.3445 81.402C91.3063 81.3547 91.2589 81.3156 91.205 81.2869L89.3783 79.9938C89.3308 79.9505 89.2749 79.9173 89.2139 79.8963C89.153 79.8753 89.0884 79.8669 89.0241 79.8715C88.9598 79.8762 88.8971 79.8939 88.8399 79.9235C88.7827 79.9532 88.7323 79.9941 88.6917 80.0438C88.6567 80.096 88.633 80.1548 88.6219 80.2166C88.6109 80.2783 88.6129 80.3417 88.6276 80.4026C88.6424 80.4636 88.6697 80.5209 88.7078 80.571C88.7459 80.621 88.7941 80.6627 88.8492 80.6934Z" fill="white"/>
<path d="M55.0417 78.6755V81.7991H59.3504V78.6755H55.0417ZM56.5535 79.4127H55.974V80.6621H56.4339V80.7995H55.974V81.2306H56.5535V81.368H55.8102V79.244H56.5535V79.4127ZM57.6181 80.9807C57.6244 81.0373 57.6184 81.0945 57.6006 81.1487C57.5828 81.2028 57.5535 81.2525 57.5147 81.2945C57.476 81.3365 57.4286 81.3698 57.3758 81.3922C57.323 81.4145 57.266 81.4255 57.2087 81.4242C57.1497 81.4263 57.0909 81.4158 57.0364 81.3936C56.9818 81.3713 56.9326 81.3378 56.8921 81.2953C56.8515 81.2527 56.8206 81.2021 56.8013 81.1468C56.7821 81.0915 56.7749 81.0327 56.7803 80.9745V80.7683H56.9378V80.9932C56.9323 81.0315 56.9353 81.0705 56.9465 81.1075C56.9576 81.1446 56.9767 81.1788 57.0024 81.2079C57.0281 81.2369 57.0599 81.2601 57.0955 81.2759C57.1311 81.2917 57.1697 81.2997 57.2087 81.2993C57.3787 81.2993 57.4606 81.1681 57.4606 80.9994V80.8558C57.4606 80.7183 57.3346 80.6621 57.1898 80.5809C57.0449 80.4997 56.8055 80.381 56.7866 80.1373V79.7126C56.7796 79.658 56.7843 79.6026 56.8006 79.55C56.8168 79.4974 56.8442 79.4488 56.8809 79.4075C56.9175 79.3662 56.9626 79.3332 57.0132 79.3105C57.0637 79.2878 57.1185 79.2761 57.174 79.2761C57.2295 79.2761 57.2843 79.2878 57.3348 79.3105C57.3854 79.3332 57.4305 79.3662 57.4671 79.4075C57.5038 79.4488 57.5312 79.4974 57.5474 79.55C57.5637 79.6026 57.5684 79.658 57.5614 79.7126V79.9937H57.4039V79.7188C57.4039 79.5626 57.3409 79.4314 57.1772 79.4314C57.0134 79.4314 56.9504 79.5251 56.9504 79.7188V80.1436C56.9504 80.281 57.0827 80.3622 57.2087 80.431C57.3346 80.4997 57.6181 80.6371 57.6181 80.8558V80.9807ZM58.5504 79.4127H58.2543V81.3993H58.0968V79.4127H57.7945V79.2753H58.5504V79.4127ZM58.8653 81.3993H58.7141V81.1244H58.8653V81.3993Z" fill="white"/>
</g>
<defs>
<clipPath id="clip0">
<rect width="121" height="120" fill="white"/>
</clipPath>
</defs>
</svg>
