<svg width="18" height="12" viewBox="0 0 18 12" fill="none" xmlns="http://www.w3.org/2000/svg">
<path d="M0.109863 5.73487L5.73486 0.109872C5.88136 -0.036624 6.11866 -0.036624 6.26513 0.109872C6.41162 0.256368 6.41162 0.493673 6.26513 0.640134L1.28025 5.62501H17.625C17.8323 5.62501 18 5.79274 18 6.00002C18 6.2073 17.8323 6.37503 17.625 6.37503H1.28025L6.26513 11.3599C6.41162 11.5064 6.41162 11.7437 6.26513 11.8901C6.19189 11.9634 6.09592 12 5.99998 12C5.90403 12 5.80809 11.9634 5.73483 11.8901L0.109827 6.26513C-0.0366325 6.11867 -0.0366325 5.88137 0.109863 5.73487Z" fill="black"/>
</svg>
