<svg width="18" height="12" viewBox="0 0 18 12" fill="none" xmlns="http://www.w3.org/2000/svg">
<path d="M17.8901 5.73487L12.2651 0.109872C12.1186 -0.036624 11.8813 -0.036624 11.7349 0.109872C11.5884 0.256368 11.5884 0.493673 11.7349 0.640134L16.7198 5.62501H0.375012C0.16773 5.62501 0 5.79274 0 6.00002C0 6.2073 0.16773 6.37503 0.375012 6.37503H16.7198L11.7349 11.3599C11.5884 11.5064 11.5884 11.7437 11.7349 11.8901C11.8081 11.9634 11.9041 12 12 12C12.096 12 12.1919 11.9634 12.2652 11.8901L17.8902 6.26513C18.0366 6.11867 18.0366 5.88137 17.8901 5.73487Z" fill="white"/>
</svg>
