<svg width="8" height="15" viewBox="0 0 8 15" fill="none" xmlns="http://www.w3.org/2000/svg">
<path d="M5.56778 4.07479C5.58616 4.05405 5.67213 3.98626 6.00971 3.98626L7.11655 3.98585C7.47663 3.98585 7.76944 3.69294 7.76944 3.33286V1.39834C7.76944 1.03887 7.47704 0.745962 7.11758 0.745346L5.4735 0.742676C4.45879 0.742676 3.59618 1.07739 2.97893 1.71076C2.36446 2.34126 2.0396 3.22143 2.0396 4.25596V5.29933H0.781896C0.421817 5.29933 0.128906 5.59224 0.128906 5.95232V8.03576C0.128906 8.39584 0.421817 8.68875 0.781896 8.68875H2.0396V13.5513C2.0396 13.9113 2.33251 14.2042 2.69259 14.2042H4.84834C5.20842 14.2042 5.50133 13.9113 5.50133 13.5513V8.68885H7.0387C7.39878 8.68885 7.69159 8.39584 7.69159 8.03597L7.69241 5.95242C7.69241 5.71589 7.56372 5.49703 7.35647 5.38128C7.26044 5.32767 7.1487 5.29933 7.03346 5.29933H5.50133V4.47503C5.50133 4.20635 5.53748 4.10909 5.56778 4.07479Z" fill="white"/>
</svg>
