<svg width="50" height="50" viewBox="0 0 50 50" fill="none" xmlns="http://www.w3.org/2000/svg">
<g clip-path="url(#clip0)">
<path d="M46.8749 18.75V44.7917C46.8823 45.8167 46.5771 46.8196 45.9999 47.6667C45.8146 47.9599 45.598 48.2324 45.3541 48.4792L24.6874 27.8125L23.9583 27.0833L38.1874 12.8541L39.0832 13.4166L46.3749 17.8541C46.6852 18.0464 46.8742 18.3851 46.8749 18.75Z" fill="#CFD8DC"/>
<path d="M38.1876 12.8542L23.2293 27.8125L2.56268 48.4791C2.31873 48.2323 2.10223 47.9599 1.91688 47.6666C1.33973 46.8195 1.03446 45.8166 1.04188 44.7916V11.4583C1.04188 8.58183 3.37371 6.25 6.25017 6.25H27.0834C27.2728 6.25645 27.4581 6.30635 27.6251 6.3958L37.2918 12.2916L38.1876 12.8542Z" fill="#4CAF50"/>
<path d="M45.3541 48.4791C45.1074 48.7231 44.8351 48.9397 44.5416 49.1249C43.6946 49.7021 42.6916 50.0074 41.6666 49.9999H6.24999C5.225 50.0074 4.22207 49.7021 3.375 49.1249C3.08154 48.9396 2.80918 48.7231 2.5625 48.4791L23.2292 27.8124L23.9584 27.0833L24.6876 27.8124L45.3541 48.4791Z" fill="#2196F3"/>
<path d="M46 47.6665C45.6314 48.2573 45.1326 48.7562 44.5417 49.1248L23.2293 27.8123C22.8306 27.4056 22.8373 26.7527 23.244 26.3541C23.645 25.9611 24.2866 25.9611 24.6876 26.3541L46 47.6665Z" fill="#FAFAFA"/>
<path d="M39.0834 13.4167L24.6875 27.8125L3.37505 49.125C2.78423 48.7563 2.2854 48.2575 1.91675 47.6667L37.2917 12.2917L39.0834 13.4167Z" fill="#FFC107"/>
<path d="M10.4169 18.7499C8.11577 18.7499 6.25024 16.8844 6.25024 14.5832C6.25024 12.282 8.11577 10.4165 10.4169 10.4165C12.7181 10.4165 14.5836 12.282 14.5836 14.5832C14.5836 16.8844 12.7181 18.7499 10.4169 18.7499ZM10.4169 12.4999C9.26635 12.4999 8.33364 13.4326 8.33364 14.5832C8.33364 15.7338 9.26635 16.6665 10.4169 16.6665C11.5675 16.6665 12.5002 15.7338 12.5002 14.5832C12.5002 13.4326 11.5675 12.4999 10.4169 12.4999Z" fill="#FAFAFA"/>
<path d="M14.5836 12.4999H10.4169C9.84165 12.4999 9.37524 12.0335 9.37524 11.4582C9.37524 10.8829 9.84165 10.4165 10.4169 10.4165H14.5836C15.1589 10.4165 15.6253 10.8829 15.6253 11.4582C15.6253 12.0335 15.1589 12.4999 14.5836 12.4999Z" fill="#FAFAFA"/>
<path d="M10.4169 27.0832C7.84443 27.384 5.51523 25.5424 5.21445 22.9699C5.2124 22.9522 5.21035 22.9344 5.2085 22.9166C5.2085 20.9687 7.05849 19.6541 10.7127 18.9958C10.5175 18.5947 10.4163 18.1544 10.4169 17.7083C10.4169 17.133 10.8833 16.6666 11.4586 16.6666C12.0339 16.6666 12.5003 17.133 12.5003 17.7083C12.5003 18.1813 12.9315 18.6291 13.6398 19.3146C14.7877 20.1748 15.5108 21.4867 15.6253 22.9166C15.6252 26.5791 13.1252 27.0832 10.4169 27.0832ZM12.2502 20.8707C8.60019 21.3312 7.29189 22.252 7.29189 22.9165C7.29189 23.3332 7.84814 24.9998 10.4169 24.9998C13.4023 24.9998 13.5419 24.2853 13.5419 22.9165C13.5419 22.1874 13.0564 21.652 12.2502 20.8707Z" fill="#FAFAFA"/>
<path d="M37.5 0C31.1751 0.0080078 26.0498 5.13339 26.0417 11.4583C26.0452 12.0877 26.1073 12.7154 26.2272 13.3333C26.4783 14.9484 27.0806 16.4887 27.9917 17.8458C28.475 18.6791 29.0334 19.5458 29.623 20.4708C33.0103 25.3335 35.3454 30.8497 36.4792 36.6665C36.5937 37.2303 37.1436 37.5946 37.7074 37.4801C38.1173 37.3969 38.4376 37.0765 38.5209 36.6665C39.6537 30.8492 41.9883 25.3323 45.3751 20.4686C45.9689 19.5457 46.5231 18.6853 46.9647 17.9124C47.8929 16.5427 48.5087 14.9859 48.7689 13.3519C48.8905 12.7279 48.954 12.0939 48.9584 11.4582C48.9503 5.13339 43.825 0.0080078 37.5 0Z" fill="#F44336"/>
<path d="M37.5 16.6666C40.3765 16.6666 42.7083 14.3348 42.7083 11.4583C42.7083 8.58183 40.3765 6.25 37.5 6.25C34.6236 6.25 32.2917 8.58183 32.2917 11.4583C32.2917 14.3348 34.6236 16.6666 37.5 16.6666Z" fill="#C62828"/>
</g>
<defs>
<clipPath id="clip0">
<rect width="50" height="50" fill="white"/>
</clipPath>
</defs>
</svg>
