<svg width="15" height="15" viewBox="0 0 15 15" fill="none" xmlns="http://www.w3.org/2000/svg">
<g clip-path="url(#clip0)">
<path d="M10.5866 0.769043H4.41295C2.40367 0.769043 0.769043 2.40367 0.769043 4.41295V10.5867C0.769043 12.5959 2.40367 14.2306 4.41295 14.2306H10.5867C12.5959 14.2306 14.2306 12.5959 14.2306 10.5867V4.41295C14.2306 2.40367 12.5959 0.769043 10.5866 0.769043V0.769043ZM7.4998 11.1806C5.47018 11.1806 3.81902 9.52942 3.81902 7.4998C3.81902 5.47018 5.47018 3.81902 7.4998 3.81902C9.52942 3.81902 11.1806 5.47018 11.1806 7.4998C11.1806 9.52942 9.52942 11.1806 7.4998 11.1806ZM11.2686 4.68707C10.6688 4.68707 10.181 4.19923 10.181 3.59944C10.181 2.99965 10.6688 2.51171 11.2686 2.51171C11.8684 2.51171 12.3563 2.99965 12.3563 3.59944C12.3563 4.19923 11.8684 4.68707 11.2686 4.68707Z" fill="white"/>
<path d="M7.49976 4.60815C5.9054 4.60815 4.60815 5.9053 4.60815 7.49976C4.60815 9.09413 5.9054 10.3914 7.49976 10.3914C9.09423 10.3914 10.3914 9.09413 10.3914 7.49976C10.3914 5.9053 9.09423 4.60815 7.49976 4.60815Z" fill="white"/>
<path d="M11.2687 3.30103C11.1041 3.30103 10.9702 3.43495 10.9702 3.59948C10.9702 3.76401 11.1041 3.89794 11.2687 3.89794C11.4333 3.89794 11.5672 3.76411 11.5672 3.59948C11.5672 3.43485 11.4333 3.30103 11.2687 3.30103Z" fill="white"/>
</g>
<defs>
<clipPath id="clip0">
<rect width="13.4615" height="13.4615" fill="white" transform="translate(0.769043 0.769043)"/>
</clipPath>
</defs>
</svg>
