<svg width="20" height="20" viewBox="0 0 20 20" fill="none" xmlns="http://www.w3.org/2000/svg">
<g clip-path="url(#clip0)">
<path d="M0.417698 3.71703C3.16262 6.04168 7.97911 10.1314 9.39473 11.4066C9.58477 11.5787 9.7886 11.6662 10.0002 11.6662C10.2114 11.6662 10.4148 11.5796 10.6045 11.4083C12.0213 10.1318 16.8378 6.04168 19.5827 3.71703C19.7536 3.57258 19.7797 3.31867 19.6413 3.14207C19.3215 2.73398 18.8446 2.5 18.3335 2.5H1.66688C1.15582 2.5 0.678909 2.73398 0.359104 3.14211C0.220745 3.31867 0.2468 3.57258 0.417698 3.71703Z" fill="#AE0F0A"/>
<path d="M19.7584 4.97659C19.6107 4.90784 19.4369 4.93182 19.314 5.03682C17.5163 6.56065 15.1477 8.57401 13.3615 10.1105C13.2675 10.191 13.2146 10.3094 13.2166 10.4335C13.2186 10.5573 13.276 10.674 13.3729 10.7513C15.0326 12.0807 17.5339 13.9093 19.3401 15.2089C19.4121 15.261 19.4975 15.2874 19.5834 15.2874C19.6485 15.2874 19.7136 15.2724 19.7734 15.2415C19.9126 15.1703 20.0001 15.027 20.0001 14.8708V5.3546C20 5.19225 19.9056 5.04456 19.7584 4.97659Z" fill="#AE0F0A"/>
<path d="M0.66 15.2086C2.46664 13.9089 4.96828 12.0803 6.62762 10.751C6.72445 10.6737 6.78184 10.5569 6.78387 10.4332C6.7859 10.3091 6.73301 10.1907 6.63902 10.1101C4.8527 8.57365 2.48371 6.56029 0.686055 5.03646C0.562344 4.93146 0.388203 4.9083 0.241719 4.97623C0.0944141 5.0442 0 5.19189 0 5.35424V14.8704C0 15.0267 0.0875 15.1699 0.226641 15.2412C0.286445 15.2721 0.351562 15.2871 0.41668 15.2871C0.502539 15.2871 0.587969 15.2607 0.66 15.2086Z" fill="#AE0F0A"/>
<path d="M19.4894 16.3424C17.745 15.0945 14.5317 12.7678 12.6136 11.211C12.4573 11.0836 12.2311 11.0877 12.0773 11.2203C11.7009 11.5487 11.386 11.8254 11.1626 12.0264C10.4765 12.6457 9.52435 12.6457 8.8367 12.0256C8.61412 11.825 8.2992 11.5474 7.92279 11.2203C7.77022 11.0868 7.54357 11.0828 7.38689 11.2109C5.47525 12.7625 2.2583 15.092 0.511074 16.3424C0.413808 16.4124 0.351152 16.5202 0.338964 16.6394C0.327168 16.7586 0.366621 16.877 0.448418 16.9649C0.763808 17.3047 1.20814 17.4997 1.66674 17.4997H18.3334C18.792 17.4997 19.2359 17.3047 19.5521 16.965C19.6335 16.8775 19.6733 16.7591 19.6615 16.6399C19.6493 16.5207 19.5867 16.4124 19.4894 16.3424Z" fill="#AE0F0A"/>
</g>
<defs>
<clipPath id="clip0">
<rect width="20" height="20" fill="white"/>
</clipPath>
</defs>
</svg>
