<svg width="16" height="20" viewBox="0 0 16 20" fill="none" xmlns="http://www.w3.org/2000/svg">
<path d="M8.25227 0.00416853C4.19068 -0.132709 0.855225 3.11898 0.855225 7.14965C0.855225 11.724 5.24505 15.0438 7.70554 19.818C7.83046 20.0604 8.17941 20.0608 8.30476 19.8184C10.5306 15.5225 14.3349 12.6419 15.04 8.50332C15.77 4.22071 12.5941 0.150548 8.25227 0.00416853ZM8.0048 10.8947C5.93652 10.8947 4.2598 9.21789 4.2598 7.14965C4.2598 5.08142 5.93656 3.40466 8.0048 3.40466C10.0731 3.40466 11.7498 5.08142 11.7498 7.14965C11.7498 9.21789 10.0731 10.8947 8.0048 10.8947Z" fill="#AE0F0A"/>
</svg>
